# xmcd
#
# Track frame offsets:
#       150
#       12232
#       21800
#       36408
#       51565
#       62988
#       78250
#       93225
#       106833
#       119517
#       133125
#       147275
#
# Disc length: 2116 seconds
#
# Revision: 0
# Processed by: cddbd v1.5.2PL0 Copyright (c) Steve Scherf et al.
# Submitted via: WhereIsIt 2010.1026
#
DISCID=a708420c
DTITLE=Trompethits - CD2
DYEAR=1900
DGENRE=
TTITLE0=Matador
TTITLE1=Din Mund Siger Nej
TTITLE2=Ramona
TTITLE3=Min Lykkeskilling
TTITLE4=Han Skal I Glas Og Ramme
TTITLE5=Vend Blikket Tilbage
TTITLE6=Blå Roser
TTITLE7=Arrivederci Roma
TTITLE8=Penge Penge
TTITLE9=Tak For Gode Som For Onde År
TTITLE10=Det Var En Aften I Mexicos Land
TTITLE11=Når Lygterne Tændes
EXTD=
EXTT0=
EXTT1=
EXTT2=
EXTT3=
EXTT4=
EXTT5=
EXTT6=
EXTT7=
EXTT8=
EXTT9=
EXTT10=
EXTT11=
PLAYORDER=
